<svg width="868" height="434" viewBox="0 0 868 434" fill="none" xmlns="http://www.w3.org/2000/svg">
<path d="M14.9553 125.036H300.153C303.866 125.036 307.427 126.511 310.052 129.136C312.678 131.762 314.153 135.323 314.153 139.036V161.274H0.955322V139.036C0.955325 135.323 2.43032 131.762 5.05582 129.136C7.68133 126.511 11.2423 125.036 14.9553 125.036Z" fill="#3F3D56"/>
<path d="M294.74 122.448C293.331 122.454 291.932 122.692 290.601 123.152C290.144 121.314 289.03 119.707 287.469 118.634C285.908 117.562 284.009 117.097 282.129 117.329C280.25 117.561 278.52 118.473 277.267 119.893C276.013 121.313 275.323 123.142 275.327 125.036C275.327 125.075 275.336 125.111 275.337 125.149C274.367 125.241 273.409 125.439 272.482 125.741C272.219 124.696 271.742 123.716 271.081 122.865C270.42 122.014 269.59 121.309 268.643 120.794C271.131 119.419 273.099 117.265 274.244 114.663C280.577 114.56 285.68 109.982 285.68 104.329C285.68 98.6104 280.466 93.975 274.033 93.975C272.624 93.9813 271.225 94.2194 269.893 94.6798C269.654 93.6618 269.212 92.7027 268.592 91.8606C267.972 91.0184 267.188 90.3106 266.287 89.7798C265.386 89.2491 264.387 88.9063 263.35 88.7724C262.313 88.6384 261.259 88.716 260.253 89.0004C259.247 89.2849 258.309 89.7703 257.495 90.4273C256.682 91.0844 256.01 91.8994 255.52 92.8233C255.03 93.7472 254.733 94.7607 254.646 95.8028C254.558 96.8448 254.683 97.8937 255.013 98.8861C254.703 99.1015 254.414 99.3433 254.125 99.5839C252.661 98.3239 250.759 97.691 248.832 97.8221C247.837 94.9636 245.867 92.5464 243.269 90.9942C240.67 89.442 237.608 88.8537 234.619 89.3323C231.63 89.8109 228.905 91.326 226.921 93.6121C224.937 95.8981 223.821 98.8094 223.768 101.836C222.73 101.918 221.704 102.123 220.713 102.445C220.602 102.007 220.453 101.58 220.267 101.168C221.289 100.266 222.11 99.1601 222.677 97.921C223.244 96.682 223.544 95.3376 223.559 93.975C223.559 88.2568 218.344 83.6214 211.911 83.6214C210.502 83.6276 209.103 83.8657 207.771 84.3262C207.533 83.3082 207.09 82.3491 206.47 81.5069C205.85 80.6648 205.066 79.9569 204.165 79.4262C203.264 78.8954 202.265 78.5527 201.228 78.4187C200.191 78.2848 199.137 78.3624 198.131 78.6468C197.125 78.9312 196.187 79.4166 195.373 80.0737C194.56 80.7307 193.888 81.5458 193.398 82.4697C192.908 83.3935 192.611 84.4071 192.524 85.4491C192.437 86.4911 192.561 87.54 192.891 88.5325C191.261 89.6643 189.914 91.1567 188.955 92.8936C187.995 94.6306 187.449 96.5653 187.359 98.5476C187.249 98.6449 187.124 98.7236 187.02 98.8269C187.214 98.0878 187.315 97.3275 187.321 96.5634C187.321 90.8452 182.106 86.2098 175.673 86.2098C174.264 86.216 172.866 86.4541 171.534 86.9146C171.295 85.8966 170.852 84.9375 170.232 84.0954C169.612 83.2532 168.828 82.5453 167.927 82.0146C167.026 81.4838 166.027 81.1411 164.99 81.0072C163.953 80.8732 162.9 80.9508 161.894 81.2352C160.887 81.5196 159.949 82.0051 159.136 82.6621C158.322 83.3191 157.65 84.1342 157.161 85.0581C156.671 85.9819 156.373 86.9955 156.286 88.0375C156.199 89.0795 156.324 90.1285 156.653 91.1209C154.935 92.3083 153.53 93.8949 152.56 95.7445C151.59 97.5942 151.083 99.6516 151.083 101.74C151.083 103.829 151.59 105.886 152.56 107.736C153.53 109.586 154.935 111.172 156.653 112.36C156.129 113.864 156.129 115.501 156.653 117.005C155.356 117.91 154.234 119.043 153.342 120.349C152.862 118.61 151.789 117.094 150.309 116.064C148.829 115.035 147.034 114.556 145.238 114.711C143.441 114.866 141.755 115.646 140.474 116.915C139.192 118.183 138.395 119.861 138.221 121.656C137.183 121.048 136.062 120.595 134.893 120.311C136.99 118.927 138.641 116.965 139.647 114.663C145.98 114.56 151.083 109.982 151.083 104.329C151.083 98.6104 145.868 93.975 139.435 93.975C138.026 93.9813 136.628 94.2194 135.296 94.6798C135.057 93.6618 134.614 92.7027 133.994 91.8606C133.375 91.0184 132.591 90.3106 131.69 89.7798C130.789 89.249 129.79 88.9063 128.752 88.7724C127.715 88.6384 126.662 88.716 125.656 89.0004C124.65 89.2849 123.711 89.7703 122.898 90.4273C122.084 91.0843 121.413 91.8994 120.923 92.8233C120.433 93.7472 120.136 94.7607 120.048 95.8028C119.961 96.8448 120.086 97.8937 120.415 98.8861C120.249 99.0016 120.1 99.1375 119.939 99.2604C119.536 99.2228 119.143 99.1518 118.728 99.1518C117.319 99.1581 115.92 99.3962 114.589 99.8566C114.54 99.6613 114.459 99.4801 114.396 99.291C114.647 98.1387 114.627 96.944 114.338 95.8006C114.049 94.6573 113.498 93.5966 112.73 92.7018C111.962 91.8069 110.997 91.1024 109.911 90.6435C108.825 90.1846 107.647 89.9838 106.47 90.0569C105.796 88.1799 104.697 86.4843 103.258 85.1026C101.82 83.721 100.082 82.6907 98.1795 82.0924C96.2771 81.4941 94.262 81.3441 92.2919 81.6539C90.3218 81.9638 88.4501 82.7251 86.8232 83.8785C85.1962 85.0319 83.8581 86.5459 82.9135 88.3024C81.9689 90.0588 81.4434 92.0099 81.3781 94.0031C81.3128 95.9964 81.7094 97.9777 82.537 99.7922C83.3646 101.607 84.6008 103.205 86.1488 104.462C85.2582 104.565 84.3801 104.756 83.5278 105.033C83.2218 103.771 82.6013 102.607 81.7243 101.65C80.8473 100.692 79.7421 99.972 78.5118 99.5564C77.2815 99.1409 75.9661 99.0434 74.688 99.2731C73.4099 99.5028 72.2107 100.052 71.2022 100.87C70.0486 99.5001 68.6054 98.4031 66.9765 97.6584C65.3477 96.9136 63.5739 96.5396 61.783 96.5634C60.3739 96.5697 58.9754 96.8078 57.6437 97.2682C57.4047 96.2502 56.962 95.2912 56.3422 94.449C55.7223 93.6068 54.9383 92.899 54.0373 92.3682C53.1364 91.8375 52.1372 91.4947 51.1002 91.3608C50.0631 91.2268 49.0097 91.3044 48.0034 91.5889C46.9972 91.8733 46.059 92.3587 45.2456 93.0157C44.4321 93.6728 43.7602 94.4878 43.2705 95.4117C42.7807 96.3356 42.4832 97.3491 42.396 98.3912C42.3088 99.4332 42.4336 100.482 42.763 101.475C41.045 102.662 39.6408 104.249 38.6707 106.098C37.7006 107.948 37.1936 110.005 37.1931 112.094C37.1931 112.134 37.2046 112.171 37.205 112.211C35.3695 111.933 33.4933 112.135 31.7596 112.799C31.5206 111.781 31.0779 110.822 30.458 109.98C29.8382 109.137 29.0542 108.43 28.1532 107.899C27.2523 107.368 26.2531 107.025 25.2161 106.891C24.179 106.757 23.1256 106.835 22.1194 107.119C21.1131 107.404 20.175 107.889 19.3615 108.546C18.5481 109.203 17.8762 110.018 17.3864 110.942C16.8967 111.866 16.5992 112.88 16.512 113.922C16.4247 114.964 16.5496 116.013 16.8789 117.005C14.3826 118.695 12.5576 121.206 11.7213 124.102C10.885 126.999 11.0902 130.096 12.3014 132.857C13.5126 135.617 15.6531 137.866 18.3505 139.212C21.048 140.557 24.1318 140.915 27.0657 140.222C27.5329 142.923 28.8482 145.404 30.821 147.307C32.7937 149.209 35.3212 150.434 38.0369 150.803C40.7525 151.172 43.5151 150.666 45.9238 149.359C48.3326 148.051 50.2623 146.011 51.433 143.533C52.4932 145.776 54.1778 147.666 56.285 148.976C58.3921 150.286 60.8323 150.96 63.313 150.918C65.7938 150.876 68.2098 150.12 70.2715 148.74C72.3332 147.359 73.953 145.414 74.9369 143.136C76.4621 143.114 77.9713 142.822 79.3943 142.273C80.2498 144.725 81.8256 146.861 83.9155 148.403C86.0053 149.944 88.5118 150.818 91.1069 150.912C93.702 151.005 96.2648 150.313 98.4599 148.925C100.655 147.538 102.38 145.52 103.409 143.136C105.297 143.098 107.151 142.639 108.838 141.793C110.019 143.88 111.76 145.597 113.864 146.749C115.967 147.901 118.351 148.442 120.746 148.313C123.141 148.183 125.453 147.388 127.42 146.016C129.387 144.644 130.933 142.75 131.882 140.547C132.576 140.53 133.269 140.458 133.952 140.331C134.92 142.68 136.559 144.691 138.664 146.114C140.769 147.537 143.246 148.308 145.787 148.331C148.328 148.354 150.819 147.628 152.949 146.244C155.08 144.86 156.755 142.878 157.766 140.547C158.783 140.519 159.792 140.37 160.774 140.104C163.375 140.829 166.14 140.7 168.663 139.737C171.186 138.773 173.333 137.026 174.789 134.752C173.975 137.904 174.38 141.246 175.923 144.113C177.465 146.98 180.031 149.159 183.11 150.217C186.188 151.276 189.552 151.134 192.531 149.822C195.51 148.509 197.884 146.122 199.181 143.136C201.068 143.098 202.923 142.639 204.61 141.793C205.791 143.88 207.531 145.597 209.635 146.749C211.739 147.901 214.122 148.442 216.517 148.313C218.912 148.183 221.224 147.388 223.191 146.016C225.159 144.644 226.704 142.75 227.653 140.547C229.54 140.51 231.395 140.051 233.082 139.204C233.992 140.826 235.245 142.23 236.753 143.319C238.261 144.408 239.988 145.155 241.814 145.509C243.64 145.863 245.521 145.815 247.326 145.368C249.132 144.922 250.818 144.087 252.269 142.923C252.718 145.399 253.883 147.689 255.619 149.511C257.354 151.333 259.586 152.607 262.037 153.175C264.489 153.744 267.053 153.582 269.414 152.71C271.774 151.838 273.828 150.294 275.321 148.269C276.875 149.459 278.68 150.279 280.598 150.666C282.517 151.053 284.498 150.997 286.392 150.502C288.285 150.007 290.041 149.086 291.524 147.809C293.008 146.533 294.18 144.934 294.952 143.136C301.285 143.033 306.388 138.455 306.388 132.801C306.388 127.083 301.173 122.448 294.74 122.448ZM63.3926 117.105C63.379 117.168 63.3695 117.232 63.3567 117.295C63.2622 117.291 63.1727 117.271 63.0772 117.271C62.6904 117.28 62.3049 117.319 61.9239 117.387C61.9449 117.34 61.9745 117.299 61.9949 117.252C62.4631 117.228 62.9297 117.18 63.3926 117.105ZM171.534 112.799C171.496 112.648 171.431 112.509 171.385 112.362C173.361 110.992 174.919 109.101 175.885 106.898C177.587 106.889 179.268 106.522 180.819 105.819C182.369 105.117 183.755 104.096 184.884 102.823C184.785 103.319 184.734 103.823 184.732 104.329C184.743 105.119 184.876 105.902 185.126 106.651C182.903 108.201 181.221 110.406 180.314 112.959C177.499 111.863 174.386 111.807 171.534 112.799V112.799ZM249.058 113.764C249.052 113.605 249.072 113.442 249.062 113.284C249.392 113.283 249.721 113.261 250.048 113.217C250.55 114.892 251.389 116.446 252.514 117.785C252.27 117.853 252.012 117.895 251.774 117.975C251.356 116.311 250.401 114.831 249.058 113.764Z" fill="#F9A825"/>
<path d="M27.029 137.978C23.3575 137.978 19.7244 138.725 16.3515 140.176C12.9786 141.626 9.93651 143.748 7.41096 146.413C4.88542 149.078 2.92934 152.23 1.66209 155.675C0.394846 159.121 -0.156994 162.789 0.0402512 166.455L17.5676 407.476C17.9372 414.384 20.9419 420.887 25.9628 425.646C30.9837 430.405 37.6384 433.057 44.5563 433.057H270.552C277.47 433.057 284.124 430.405 289.145 425.646C294.166 420.887 297.171 414.384 297.54 407.476L315.068 166.455C315.265 162.789 314.713 159.121 313.446 155.675C312.179 152.23 310.223 149.078 307.697 146.413C305.172 143.748 302.13 141.626 298.757 140.176C295.384 138.725 291.751 137.978 288.079 137.978H27.029Z" fill="#3F3D56"/>
<path d="M55.312 137.978H39.7815V433.057H55.312V137.978Z" fill="#F9A826"/>
<path d="M99.3149 137.978H83.7844V433.057H99.3149V137.978Z" fill="#F9A826"/>
<path d="M143.318 137.978H127.787V433.057H143.318V137.978Z" fill="#F9A826"/>
<path d="M187.321 137.978H171.79V433.057H187.321V137.978Z" fill="#F9A826"/>
<path d="M231.324 137.978H215.793V433.057H231.324V137.978Z" fill="#F9A826"/>
<path d="M275.327 137.978H259.796V433.057H275.327V137.978Z" fill="#F9A826"/>
<path d="M528.702 17.0066L521.932 0.516602L431.662 37.5766C429.619 38.4169 427.871 39.8456 426.64 41.6813C425.41 43.5169 424.753 45.6768 424.752 47.8866V145.417H442.582V52.3866L528.702 17.0066Z" fill="#3F3D56"/>
<path d="M497.662 433.057H378.572L349.402 141.387H523.592L497.662 433.057Z" fill="#3F3D56"/>
<path d="M536.552 136.527H337.252V155.967H536.552V136.527Z" fill="#3F3D56"/>
<path d="M694.128 327.141C731.12 327.141 761.108 297.153 761.108 260.161C761.108 223.169 731.12 193.181 694.128 193.181C657.136 193.181 627.148 223.169 627.148 260.161C627.148 297.153 657.136 327.141 694.128 327.141Z" fill="#3AD29F"/>
<path d="M738.477 260.16L671.438 293.1V260.16V227.22L738.477 260.16Z" fill="url(#paint0_linear)"/>
<path d="M734.448 260.16L675.458 289.15V260.16V231.17L734.448 260.16Z" fill="white"/>
<path opacity="0.2" d="M632.628 267.851C632.639 254.066 636.901 240.62 644.833 229.347C652.766 218.074 663.983 209.521 676.954 204.856C689.925 200.192 704.019 199.641 717.315 203.28C730.61 206.919 742.46 214.57 751.248 225.191C746.461 217.318 740.102 210.517 732.567 205.214C725.033 199.91 716.486 196.217 707.46 194.366C698.434 192.515 689.124 192.545 680.11 194.456C671.097 196.366 662.574 200.114 655.075 205.467C647.575 210.82 641.261 217.662 636.526 225.566C631.79 233.47 628.736 242.266 627.554 251.403C626.372 260.541 627.087 269.824 629.655 278.673C632.222 287.521 636.588 295.745 642.478 302.831C636.018 292.308 632.608 280.198 632.628 267.851Z" fill="white"/>
<path d="M727.548 347.809C726.767 347.809 726.019 348.12 725.466 348.672C724.914 349.223 724.603 349.972 724.602 350.753V430.113C724.603 430.893 724.914 431.642 725.466 432.194C726.019 432.746 726.767 433.056 727.548 433.057H864.162C864.942 433.056 865.691 432.746 866.243 432.194C866.796 431.642 867.107 430.893 867.108 430.113V350.753C867.107 349.972 866.796 349.223 866.243 348.672C865.691 348.12 864.942 347.809 864.162 347.809H727.548Z" fill="#3F3D56"/>
<path d="M742.815 354.807C741.36 354.809 739.965 355.388 738.936 356.416C737.907 357.445 737.328 358.84 737.327 360.295V420.57C737.328 422.025 737.907 423.42 738.936 424.449C739.965 425.478 741.36 426.056 742.815 426.058H848.895C850.35 426.056 851.745 425.478 852.774 424.449C853.802 423.42 854.381 422.025 854.383 420.57V360.295C854.381 358.84 853.802 357.445 852.774 356.416C851.745 355.388 850.35 354.809 848.895 354.807L742.815 354.807Z" fill="#FF6584"/>
<path d="M729.084 373.95H657.922V390.432H729.084V373.95Z" fill="#3F3D56"/>
<path d="M534.093 347.809C533.313 347.81 532.565 348.12 532.013 348.672C531.461 349.224 531.151 349.972 531.149 350.753V430.113C531.151 430.893 531.461 431.641 532.013 432.193C532.565 432.745 533.313 433.055 534.093 433.057H670.709C671.49 433.055 672.238 432.745 672.79 432.193C673.342 431.641 673.652 430.893 673.653 430.113V350.753C673.652 349.972 673.342 349.224 672.79 348.672C672.238 348.12 671.49 347.81 670.709 347.809H534.093Z" fill="#3F3D56"/>
<path d="M549.363 354.807C547.907 354.808 546.512 355.387 545.482 356.416C544.453 357.445 543.874 358.84 543.872 360.295V420.57C543.874 422.025 544.453 423.421 545.482 424.449C546.512 425.478 547.907 426.057 549.363 426.058H655.44C656.896 426.057 658.291 425.478 659.32 424.449C660.35 423.421 660.929 422.025 660.931 420.57V360.295C660.929 358.84 660.35 357.445 659.32 356.416C658.291 355.387 656.896 354.808 655.44 354.807L549.363 354.807Z" fill="#F9A826"/>
<path d="M544.572 57.806C545.423 59.2753 546.37 61.0733 547.414 63.2C548.458 65.3267 549.521 67.5693 550.604 69.928C551.687 72.248 552.75 74.626 553.794 77.062C554.877 79.4593 555.863 81.6827 556.752 83.732C557.641 81.6827 558.608 79.4593 559.652 77.062C560.696 74.626 561.759 72.248 562.842 69.928C563.925 67.5693 564.988 65.3267 566.032 63.2C567.076 61.0733 568.023 59.2753 568.874 57.806H575.486C575.834 60.7447 576.163 63.8767 576.472 67.202C576.781 70.4887 577.052 73.872 577.284 77.352C577.555 80.7933 577.787 84.2733 577.98 87.792C578.212 91.272 578.405 94.6747 578.56 98H571.368C571.213 93.3213 571.02 88.5073 570.788 83.558C570.595 78.6087 570.285 73.814 569.86 69.174C569.435 70.0633 568.932 71.1267 568.352 72.364C567.772 73.6013 567.153 74.9547 566.496 76.424C565.839 77.8547 565.162 79.3433 564.466 80.89C563.809 82.4367 563.151 83.9447 562.494 85.414C561.875 86.8447 561.295 88.198 560.754 89.474C560.213 90.7113 559.749 91.7747 559.362 92.664H553.91C553.523 91.7747 553.059 90.692 552.518 89.416C551.977 88.14 551.377 86.7867 550.72 85.356C550.101 83.8867 549.444 82.3787 548.748 80.832C548.091 79.2853 547.433 77.7967 546.776 76.366C546.119 74.9353 545.5 73.6013 544.92 72.364C544.34 71.088 543.837 70.0247 543.412 69.174C542.987 73.814 542.658 78.6087 542.426 83.558C542.233 88.5073 542.059 93.3213 541.904 98H534.712C534.867 94.6747 535.041 91.2333 535.234 87.676C535.466 84.1187 535.698 80.6 535.93 77.12C536.201 73.6013 536.491 70.1987 536.8 66.912C537.109 63.6253 537.438 60.59 537.786 57.806H544.572ZM593.048 77.874C593.048 80.078 593.318 82.0887 593.86 83.906C594.401 85.6847 595.174 87.212 596.18 88.488C597.224 89.7253 598.48 90.692 599.95 91.388C601.419 92.084 603.082 92.432 604.938 92.432C606.755 92.432 608.398 92.084 609.868 91.388C611.337 90.692 612.574 89.7253 613.58 88.488C614.624 87.212 615.416 85.6847 615.958 83.906C616.499 82.0887 616.77 80.078 616.77 77.874C616.77 75.67 616.499 73.6787 615.958 71.9C615.416 70.0827 614.624 68.5553 613.58 67.318C612.574 66.042 611.337 65.056 609.868 64.36C608.398 63.664 606.755 63.316 604.938 63.316C603.082 63.316 601.419 63.664 599.95 64.36C598.48 65.056 597.224 66.042 596.18 67.318C595.174 68.594 594.401 70.1213 593.86 71.9C593.318 73.6787 593.048 75.67 593.048 77.874ZM624.426 77.874C624.426 81.3153 623.904 84.3507 622.86 86.98C621.854 89.6093 620.462 91.8133 618.684 93.592C616.944 95.332 614.894 96.6467 612.536 97.536C610.177 98.4253 607.664 98.87 604.996 98.87C602.328 98.87 599.795 98.4253 597.398 97.536C595.039 96.6467 592.97 95.332 591.192 93.592C589.452 91.8133 588.06 89.6093 587.016 86.98C585.972 84.3507 585.45 81.3153 585.45 77.874C585.45 74.4327 585.972 71.4167 587.016 68.826C588.06 66.1967 589.471 63.9927 591.25 62.214C593.067 60.4353 595.155 59.1013 597.514 58.212C599.872 57.3227 602.366 56.878 604.996 56.878C607.625 56.878 610.119 57.3227 612.478 58.212C614.836 59.1013 616.886 60.4353 618.626 62.214C620.404 63.9927 621.816 66.1967 622.86 68.826C623.904 71.4167 624.426 74.4327 624.426 77.874ZM642.794 98C639.894 91.736 637.091 85.182 634.384 78.338C631.716 71.494 629.222 64.65 626.902 57.806H634.964C635.892 60.5127 636.839 63.2773 637.806 66.1C638.773 68.9227 639.739 71.7067 640.706 74.452C641.673 77.1587 642.639 79.788 643.606 82.34C644.573 84.892 645.52 87.2313 646.448 89.358C647.337 87.2313 648.265 84.9113 649.232 82.398C650.199 79.846 651.165 77.1973 652.132 74.452C653.137 71.7067 654.123 68.9227 655.09 66.1C656.057 63.2773 656.985 60.5127 657.874 57.806H665.704C663.345 64.65 660.832 71.494 658.164 78.338C655.496 85.182 652.712 91.736 649.812 98H642.794ZM670.902 57.806H678.21V98H670.902V57.806ZM687.837 98V57.806H713.647V64.012H695.145V73.93H711.617V80.02H695.145V91.794H715.039V98H687.837ZM731.566 92.548C734.195 92.548 736.109 92.1033 737.308 91.214C738.506 90.3247 739.106 89.068 739.106 87.444C739.106 86.4773 738.893 85.646 738.468 84.95C738.081 84.254 737.501 83.6353 736.728 83.094C735.993 82.514 735.084 81.992 734.002 81.528C732.919 81.0253 731.682 80.542 730.29 80.078C728.898 79.5753 727.544 79.034 726.23 78.454C724.954 77.8353 723.813 77.0813 722.808 76.192C721.841 75.3027 721.048 74.2393 720.43 73.002C719.85 71.7647 719.56 70.276 719.56 68.536C719.56 64.9013 720.816 62.0593 723.33 60.01C725.843 57.922 729.265 56.878 733.596 56.878C736.109 56.878 738.332 57.168 740.266 57.748C742.238 58.2893 743.784 58.8887 744.906 59.546L742.644 65.462C741.329 64.7273 739.879 64.1667 738.294 63.78C736.747 63.3933 735.142 63.2 733.48 63.2C731.508 63.2 729.961 63.606 728.84 64.418C727.757 65.23 727.216 66.3707 727.216 67.84C727.216 68.7293 727.39 69.5027 727.738 70.16C728.124 70.7787 728.646 71.3393 729.304 71.842C730 72.3447 730.792 72.8087 731.682 73.234C732.61 73.6593 733.615 74.0653 734.698 74.452C736.592 75.148 738.274 75.8633 739.744 76.598C741.252 77.294 742.508 78.1447 743.514 79.15C744.558 80.1167 745.35 81.2767 745.892 82.63C746.433 83.9447 746.704 85.5493 746.704 87.444C746.704 91.0787 745.408 93.9013 742.818 95.912C740.266 97.884 736.515 98.87 731.566 98.87C729.903 98.87 728.376 98.754 726.984 98.522C725.63 98.3287 724.412 98.0773 723.33 97.768C722.286 97.4587 721.377 97.1493 720.604 96.84C719.83 96.492 719.212 96.1827 718.748 95.912L720.894 89.938C721.938 90.518 723.349 91.098 725.128 91.678C726.906 92.258 729.052 92.548 731.566 92.548Z" fill="#F9A826"/>
<path d="M753.144 98V57.806H778.548V64.012H760.452V74.278H776.518V80.484H760.452V98H753.144ZM810.493 91.678V98H785.089V57.806H792.397V91.678H810.493ZM816.072 57.806H823.38V98H816.072V57.806ZM856.845 98C855.724 95.7187 854.313 93.2053 852.611 90.46C850.91 87.7147 849.131 85.066 847.275 82.514C846.502 83.5193 845.651 84.718 844.723 86.11C843.834 87.502 842.925 88.9327 841.997 90.402C841.108 91.8327 840.277 93.2247 839.503 94.578C838.73 95.9313 838.111 97.072 837.647 98H829.353C831.093 94.7133 833.104 91.3493 835.385 87.908C837.667 84.428 840.141 80.7933 842.809 77.004L829.933 57.806H838.633L847.507 71.552L856.265 57.806H864.617L851.915 76.946C854.854 80.9287 857.445 84.6987 859.687 88.256C861.969 91.8133 863.883 95.0613 865.429 98H856.845Z" fill="#3ACC6C"/>
<defs>
<linearGradient id="paint0_linear" x1="704.958" y1="293.101" x2="704.958" y2="227.221" gradientUnits="userSpaceOnUse">
<stop stop-opacity="0.12"/>
<stop offset="0.55" stop-opacity="0.09"/>
<stop offset="1" stop-opacity="0.02"/>
</linearGradient>
</defs>
</svg>
