<svg height="512" viewBox="0 0 58 58" width="512" xmlns="http://www.w3.org/2000/svg"><g id="Page-1" fill="none" fill-rule="evenodd"><g id="002---Eye-Check" fill-rule="nonzero" transform="translate(-1)"><path id="Shape" d="m52.93 28.72c2.727086-2.4594059 4.7381091-5.6106998 5.82-9.12.08-.26.15-.52.21-.78.007654-.0080001.0113232-.0190075.01-.03.0399904-.1912654.0399904-.3887346 0-.58-2.49-10.36-14.51-18.21-28.97-18.21s-26.48 7.85-28.97 18.21c-.03999039.1912654-.03999039.3887346 0 .58-.00132315.0109925.00234597.0219999.01.03.06.26.13.52.21.78 2.67 9.16 12.85 16.19 25.42 17.26z" fill="#fdd7ad"/><path id="Shape" d="m29.986 7.011c14.451-.018 26.48 5.1 28.976 11.842.0400142.1224814.0400142.2545186 0 .377-2.49 6.744-14.513 11.853-28.976 11.853s-26.486-5.109-28.977-11.853c-.04001415-.1224814-.04001415-.2545186 0-.377 2.491-6.743 14.513-11.853 28.977-11.853" fill="#f9c795"/><path id="Shape" d="m31.7 28.98c-.4 0-1.79.035-2.19.01-7.248-.043-16.289-1.353-22.45-4.9-2.14635339-1.0833381-3.90378515-2.8058309-5.03-4.93-.03996764-.1029227-.03996764-.2170773 0-.32 0-.01.01-.01.01-.02 1.917-4.45 8.982-7.04 13.69-8.2 9.3908384-2.15901378 19.1491616-2.15901378 28.54 0 4.718 1.16 11.745 3.729 13.69 8.2 0 .01.01.01.01.02.0399676.1029227.0399676.2170773 0 .32-1.626 3.484-5.863 5.657-9.5 6.96z" fill="#ecf0f1"/><path id="Shape" d="m44 19c.0073874 3.0148786-.9686213 5.9499264-2.78 8.36l-9.52 1.62c-.4 0-1.79.04-2.19.01-3.383597-.0213892-6.7604207-.3055773-10.1-.85v-.01c-4.5506381-5.241326-4.546373-13.0336587.01-18.27 7.0064585-1.14999851 14.1535415-1.14999851 21.16 0 2.2174099 2.5270933 3.4338394 5.778019 3.42 9.14z" fill="#14a085"/><path id="Shape" d="m34.51 16.85c.3202774.1008087.6542351.1514084.99.15 1.9329966 0 3.5-1.5670034 3.5-3.5s-1.5670034-3.5-3.5-3.5-3.5 1.5670034-3.5 3.5c-.0004925.3316846.0466555.6617207.14.98v.01z" fill="#ecf0f1"/><circle id="Oval" cx="30" cy="19" fill="#2c3e50" r="5"/><path id="Shape" d="m7 19c.00946699 1.5791571-.20603026 3.1516136-.64 4.67-1.85175275-1.049562-3.35668747-2.6170575-4.33-4.51-.03996764-.1029227-.03996764-.2170773 0-.32 0-.01.01-.01.01-.02.9588507-1.8981295 2.46789615-3.4629365 4.33-4.49.42561174 1.5199061.63764517 3.091646.63 4.67z" fill="#f09372"/><path id="Shape" d="m57.97 19.16c-1.1727883 2.1635988-2.9806814 3.9156496-5.18 5.02-.5355942-1.674028-.8022411-3.4224218-.79-5.18-.0122411-1.7575782.2544058-3.505972.79-5.18 2.2177108 1.0651347 4.0313394 2.8191275 5.17 5 0 .01.01.01.01.02.0399676.1029227.0399676.2170773 0 .32z" fill="#f09372"/><circle id="Oval" cx="42.5" cy="41.5" fill="#4fba6f" r="16.5"/><path id="Shape" d="m37 50h-.072c-.2777823-.0208102-.5345011-.1558682-.709-.373l-4-5c-.3451779-.4313344-.2753343-1.060822.156-1.406.4313344-.3451779 1.060822-.2753343 1.406.156l3.325 4.158 14.212-13.266c.4056693-.3616101 1.0258719-.3330533 1.396595.0643053.3707231.3973587.3562483 1.0180496-.032595 1.3976947l-15 14c-.1850818.1727711-.4288101.2689044-.682.269z" fill="#ecf0f1"/></g></g></svg>